<svg width="18" height="16" viewBox="0 0 18 16" fill="none" xmlns="http://www.w3.org/2000/svg">
<path d="M0.818182 1.55833L1.86545 0.5L15.5455 14.4333L14.5064 15.5L11.9864 12.9333C11.0455 13.25 10.0473 13.4167 9 13.4167C4.90909 13.4167 1.41545 10.825 0 7.16667C0.564545 5.7 1.46455 4.40833 2.61 3.38333L0.818182 1.55833ZM9 4.66667C9.65099 4.66667 10.2753 4.93006 10.7356 5.3989C11.1959 5.86774 11.4545 6.50363 11.4545 7.16667C11.455 7.45047 11.4079 7.73228 11.3155 8L8.18182 4.80833C8.44467 4.71415 8.72135 4.66625 9 4.66667ZM9 0.916667C13.0909 0.916667 16.5845 3.50833 18 7.16667C17.3319 8.89411 16.1972 10.3936 14.7273 11.4917L13.5655 10.3C14.697 9.50287 15.6095 8.42425 16.2164 7.16667C15.555 5.79155 14.5281 4.63303 13.2524 3.82279C11.9767 3.01256 10.5034 2.58314 9 2.58333C8.10818 2.58333 7.23273 2.73333 6.41455 3L5.15455 1.725C6.33273 1.20833 7.63364 0.916667 9 0.916667ZM1.78364 7.16667C2.44501 8.54178 3.47192 9.70031 4.74761 10.5105C6.0233 11.3208 7.4966 11.7502 9 11.75C9.56455 11.75 10.1209 11.6917 10.6364 11.575L8.77091 9.66667C8.20159 9.60451 7.67031 9.34573 7.26543 8.93335C6.86056 8.52098 6.60648 7.97986 6.54545 7.4L3.76364 4.55833C2.95364 5.26667 2.27455 6.15 1.78364 7.16667Z" fill="#9CA2A8"/>
</svg>
