<svg width="16" height="16" viewBox="0 0 16 16" fill="none" xmlns="http://www.w3.org/2000/svg">
<path d="M8 16C12.3369 16 16 12.3369 16 8C16 3.66311 12.3369 0 8 0C3.66311 0 0 3.66311 0 8C0 12.3369 3.66311 16 8 16ZM8 1.77778C11.3724 1.77778 14.2222 4.62755 14.2222 8C14.2222 11.3724 11.3724 14.2222 8 14.2222C4.62756 14.2222 1.77778 11.3724 1.77778 8C1.77778 4.62755 4.62756 1.77778 8 1.77778Z" fill="#BAC0C5"/>
<path d="M7.11133 4.44531H8.88911V8.88976H7.11133V4.44531ZM7.11133 9.77865H8.88911V11.5564H7.11133V9.77865Z" fill="#BAC0C5"/>
</svg>
